<svg xmlns="http://www.w3.org/2000/svg" viewBox="0 0 800 600" role="img" aria-labelledby="title desc">
  <title id="title">Ocean wave</title>
  <desc id="desc">A stylized ocean wave below a pale sun.</desc>
  <defs>
    <linearGradient id="sky" x1="0" x2="0" y1="0" y2="1">
      <stop offset="0" stop-color="#bfe9ff"/>
      <stop offset="1" stop-color="#eff8ff"/>
    </linearGradient>
    <linearGradient id="wave" x1="0" x2="1" y1="0" y2="0">
      <stop offset="0" stop-color="#1e88e5"/>
      <stop offset="1" stop-color="#00acc1"/>
    </linearGradient>
  </defs>
  <rect width="800" height="600" fill="url(#sky)"/>
  <circle cx="620" cy="130" r="72" fill="#ffe3a3"/>
  <path d="M0 352c92-45 168-40 230 14 76 66 163 72 260 16 96-56 202-46 310 30v188H0z" fill="url(#wave)"/>
  <path d="M0 438c118-54 220-52 306 6 84 56 176 61 276 16 75-34 148-32 218 8v132H0z" fill="#096ab0" opacity="0.68"/>
  <path d="M144 354c45-13 78-7 112 21 30 25 62 33 103 24" fill="none" stroke="#ffffff" stroke-width="24" stroke-linecap="round" opacity="0.9"/>
</svg>
